<!DOCTYPE svg PUBLIC "-//W3C//DTD SVG 1.1//EN" "http://www.w3.org/Graphics/SVG/1.1/DTD/svg11.dtd">

<!-- Uploaded to: SVG Repo, www.svgrepo.com, Transformed by: SVG Repo Mixer Tools -->
<svg width="64px" height="64px" viewBox="0 0 15 15" fill="none" xmlns="http://www.w3.org/2000/svg" stroke="#fff" stroke-width="0.6">

<g id="SVGRepo_bgCarrier" stroke-width="0"/>

<g id="SVGRepo_tracerCarrier" stroke-linecap="round" stroke-linejoin="round"/>

<g id="SVGRepo_iconCarrier"> <path d="M4 0.5H1.5C0.947715 0.5 0.5 0.947715 0.5 1.5V4M6 0.5H9M11 0.5H13.5C14.0523 0.5 14.5 0.947715 14.5 1.5V4M0.5 6V9M14.5 6V9M0.5 11V13.5C0.5 14.0523 0.947715 14.5 1.5 14.5H4M14.5 11V13.5C14.5 14.0523 14.0523 14.5 13.5 14.5H11M7.5 4V11M4 7.5H11M6 14.5H9" stroke="#fff"/> </g>

</svg>