<!DOCTYPE svg PUBLIC "-//W3C//DTD SVG 1.1//EN" "http://www.w3.org/Graphics/SVG/1.1/DTD/svg11.dtd">

<!-- Uploaded to: SVG Repo, www.svgrepo.com, Transformed by: SVG Repo Mixer Tools -->
<svg fill="#fff" height="64px" width="64px" version="1.1" id="Layer_1" xmlns="http://www.w3.org/2000/svg" xmlns:xlink="http://www.w3.org/1999/xlink" viewBox="0 0 128 128" xml:space="preserve" stroke="#000000" stroke-width="0.00128">

<g id="SVGRepo_bgCarrier" stroke-width="0"/>

<g id="SVGRepo_tracerCarrier" stroke-linecap="round" stroke-linejoin="round"/>

<g id="SVGRepo_iconCarrier"> <path d="M95.4,6c2.7,0,4.9,2.2,4.9,4.9v15.4c0,2.7-2.2,4.9-4.9,4.9c-2.7,0-4.9-2.2-4.9-4.9V10.9C90.5,8.2,92.7,6,95.4,6"/> <polygon points="64.3,57.9 72.4,57.9 72.4,103.1 63.3,103.1 63.3,68.2 55.6,74.4 51.1,68.5 "/> <path d="M105.8,20.2v6.2c0,5.7-4.7,10.4-10.4,10.4c-5.7,0-10.4-4.7-10.4-10.4v-6.2H44.4v6.2c0,5.7-4.7,10.4-10.4,10.4 c-5.8,0-10.4-4.7-10.4-10.4v-6.2H8.3v25.8V122h112.8V46.1V20.2H105.8z M115,93.6l-22.4,22.1H14.4V46.1H115V93.6z"/> <path d="M34,6c2.7,0,4.9,2.2,4.9,4.9v15.4c0,2.7-2.2,4.9-4.9,4.9c-2.7,0-4.9-2.2-4.9-4.9V10.9C29.1,8.2,31.3,6,34,6"/> <path d="M95.4,6c2.7,0,4.9,2.2,4.9,4.9v15.4c0,2.7-2.2,4.9-4.9,4.9c-2.7,0-4.9-2.2-4.9-4.9V10.9C90.5,8.2,92.7,6,95.4,6"/> </g>

</svg>